<svg id="visual" viewBox="0 0 2000 2000" width="2000" height="2000" xmlns="http://www.w3.org/2000/svg" xmlns:xlink="http://www.w3.org/1999/xlink" version="1.1"><g stroke-width="1" stroke-linejoin="bevel"><path d="M871.9 1041.1L846.9 958.9L719.7 1165.1Z" fill="#cb4d4c" stroke="#cb4d4c"></path><path d="M846.9 958.9L621.7 826.9L719.7 1165.1Z" fill="#882330" stroke="#882330"></path><path d="M719.7 1165.1L859.9 1257.3L871.9 1041.1Z" fill="#982e37" stroke="#982e37"></path><path d="M621.7 826.9L438.4 1064.1L719.7 1165.1Z" fill="#ee645a" stroke="#ee645a"></path><path d="M521.4 839.9L438.4 1064.1L621.7 826.9Z" fill="#680e21" stroke="#680e21"></path><path d="M719.7 1165.1L651.7 1412.3L859.9 1257.3Z" fill="#680e21" stroke="#680e21"></path><path d="M1085.1 865.9L860.9 699.7L846.9 958.9Z" fill="#59031a" stroke="#59031a"></path><path d="M846.9 958.9L860.9 699.7L621.7 826.9Z" fill="#680e21" stroke="#680e21"></path><path d="M621.7 826.9L483.4 711.7L521.4 839.9Z" fill="#cb4d4c" stroke="#cb4d4c"></path><path d="M1183.1 1063.1L1085.1 865.9L871.9 1041.1Z" fill="#a9383e" stroke="#a9383e"></path><path d="M871.9 1041.1L1085.1 865.9L846.9 958.9Z" fill="#59031a" stroke="#59031a"></path><path d="M512.4 1389.3L651.7 1412.3L719.7 1165.1Z" fill="#ff6f61" stroke="#ff6f61"></path><path d="M860.9 699.7L622.7 650.7L621.7 826.9Z" fill="#59031a" stroke="#59031a"></path><path d="M622.7 650.7L483.4 711.7L621.7 826.9Z" fill="#cb4d4c" stroke="#cb4d4c"></path><path d="M174.2 891.9L215.2 1054.1L438.4 1064.1Z" fill="#ff6f61" stroke="#ff6f61"></path><path d="M438.4 1064.1L512.4 1389.3L719.7 1165.1Z" fill="#882330" stroke="#882330"></path><path d="M926.9 1588.6L1071.1 1307.3L859.9 1257.3Z" fill="#cb4d4c" stroke="#cb4d4c"></path><path d="M859.9 1257.3L1071.1 1307.3L871.9 1041.1Z" fill="#982e37" stroke="#982e37"></path><path d="M1071.1 1307.3L1183.1 1063.1L871.9 1041.1Z" fill="#882330" stroke="#882330"></path><path d="M174.2 891.9L438.4 1064.1L521.4 839.9Z" fill="#ee645a" stroke="#ee645a"></path><path d="M438.4 1064.1L242.2 1313.3L512.4 1389.3Z" fill="#781928" stroke="#781928"></path><path d="M242.2 1313.3L491.4 1503.6L512.4 1389.3Z" fill="#ba4345" stroke="#ba4345"></path><path d="M512.4 1389.3L491.4 1503.6L651.7 1412.3Z" fill="#ff6f61" stroke="#ff6f61"></path><path d="M651.7 1412.3L926.9 1588.6L859.9 1257.3Z" fill="#ba4345" stroke="#ba4345"></path><path d="M622.7 650.7L586.7 512.4L483.4 711.7Z" fill="#882330" stroke="#882330"></path><path d="M483.4 711.7L275.2 738.7L521.4 839.9Z" fill="#680e21" stroke="#680e21"></path><path d="M895.9 430.4L586.7 512.4L622.7 650.7Z" fill="#781928" stroke="#781928"></path><path d="M465.4 408.4L275.2 738.7L483.4 711.7Z" fill="#882330" stroke="#882330"></path><path d="M491.4 1503.6L730.7 1590.6L651.7 1412.3Z" fill="#982e37" stroke="#982e37"></path><path d="M215.2 1054.1L242.2 1313.3L438.4 1064.1Z" fill="#cb4d4c" stroke="#cb4d4c"></path><path d="M730.7 1590.6L926.9 1588.6L651.7 1412.3Z" fill="#dc5853" stroke="#dc5853"></path><path d="M275.2 738.7L174.2 891.9L521.4 839.9Z" fill="#dc5853" stroke="#dc5853"></path><path d="M215.2 1054.1L0 1173.1L242.2 1313.3Z" fill="#781928" stroke="#781928"></path><path d="M1258.3 1409.3L1326.3 1049.1L1183.1 1063.1Z" fill="#882330" stroke="#882330"></path><path d="M1183.1 1063.1L1359.3 852.9L1085.1 865.9Z" fill="#982e37" stroke="#982e37"></path><path d="M1258.3 1409.3L1183.1 1063.1L1071.1 1307.3Z" fill="#ff6f61" stroke="#ff6f61"></path><path d="M1085.1 865.9L1180.1 622.7L860.9 699.7Z" fill="#982e37" stroke="#982e37"></path><path d="M860.9 699.7L895.9 430.4L622.7 650.7Z" fill="#ff6f61" stroke="#ff6f61"></path><path d="M1359.3 852.9L1180.1 622.7L1085.1 865.9Z" fill="#ee645a" stroke="#ee645a"></path><path d="M926.9 1588.6L1120.1 1529.6L1071.1 1307.3Z" fill="#982e37" stroke="#982e37"></path><path d="M1180.1 622.7L895.9 430.4L860.9 699.7Z" fill="#59031a" stroke="#59031a"></path><path d="M1120.1 1529.6L1258.3 1409.3L1071.1 1307.3Z" fill="#781928" stroke="#781928"></path><path d="M1326.3 1049.1L1359.3 852.9L1183.1 1063.1Z" fill="#680e21" stroke="#680e21"></path><path d="M491.4 1503.6L696.7 1702.8L730.7 1590.6Z" fill="#680e21" stroke="#680e21"></path><path d="M730.7 1590.6L932.9 1758.8L926.9 1588.6Z" fill="#59031a" stroke="#59031a"></path><path d="M926.9 1588.6L932.9 1758.8L1120.1 1529.6Z" fill="#982e37" stroke="#982e37"></path><path d="M363.4 1840.8L696.7 1702.8L491.4 1503.6Z" fill="#680e21" stroke="#680e21"></path><path d="M645.7 190.2L465.4 408.4L586.7 512.4Z" fill="#882330" stroke="#882330"></path><path d="M586.7 512.4L465.4 408.4L483.4 711.7Z" fill="#dc5853" stroke="#dc5853"></path><path d="M0 709.7L0 911.9L174.2 891.9Z" fill="#781928" stroke="#781928"></path><path d="M1180.1 622.7L1135.1 414.4L895.9 430.4Z" fill="#59031a" stroke="#59031a"></path><path d="M895.9 430.4L645.7 190.2L586.7 512.4Z" fill="#59031a" stroke="#59031a"></path><path d="M1331.3 427.4L1135.1 414.4L1180.1 622.7Z" fill="#882330" stroke="#882330"></path><path d="M696.7 1702.8L932.9 1758.8L730.7 1590.6Z" fill="#59031a" stroke="#59031a"></path><path d="M1120.1 1529.6L1361.3 1494.6L1258.3 1409.3Z" fill="#dc5853" stroke="#dc5853"></path><path d="M1359.3 852.9L1341.3 588.7L1180.1 622.7Z" fill="#781928" stroke="#781928"></path><path d="M0 709.7L174.2 891.9L275.2 738.7Z" fill="#982e37" stroke="#982e37"></path><path d="M174.2 891.9L0 911.9L215.2 1054.1Z" fill="#ee645a" stroke="#ee645a"></path><path d="M0 911.9L0 1173.1L215.2 1054.1Z" fill="#cb4d4c" stroke="#cb4d4c"></path><path d="M242.2 1313.3L149.2 1599.6L491.4 1503.6Z" fill="#cb4d4c" stroke="#cb4d4c"></path><path d="M1326.3 1049.1L1501.6 1030.1L1359.3 852.9Z" fill="#680e21" stroke="#680e21"></path><path d="M1359.3 852.9L1621.6 703.7L1341.3 588.7Z" fill="#cb4d4c" stroke="#cb4d4c"></path><path d="M1258.3 1409.3L1501.6 1030.1L1326.3 1049.1Z" fill="#781928" stroke="#781928"></path><path d="M1135.1 414.4L944.9 302.2L895.9 430.4Z" fill="#982e37" stroke="#982e37"></path><path d="M1340.3 1757.8L1361.3 1494.6L1120.1 1529.6Z" fill="#680e21" stroke="#680e21"></path><path d="M1258.3 1409.3L1626.6 1405.3L1501.6 1030.1Z" fill="#59031a" stroke="#59031a"></path><path d="M0 1173.1L0 1336.3L242.2 1313.3Z" fill="#59031a" stroke="#59031a"></path><path d="M228.2 403.4L0 709.7L275.2 738.7Z" fill="#982e37" stroke="#982e37"></path><path d="M392.4 251.2L228.2 403.4L465.4 408.4Z" fill="#dc5853" stroke="#dc5853"></path><path d="M465.4 408.4L228.2 403.4L275.2 738.7Z" fill="#781928" stroke="#781928"></path><path d="M0 1336.3L149.2 1599.6L242.2 1313.3Z" fill="#dc5853" stroke="#dc5853"></path><path d="M696.7 1702.8L647.7 2000L932.9 1758.8Z" fill="#882330" stroke="#882330"></path><path d="M1135.1 414.4L1040.1 167.2L944.9 302.2Z" fill="#ba4345" stroke="#ba4345"></path><path d="M1341.3 588.7L1331.3 427.4L1180.1 622.7Z" fill="#a9383e" stroke="#a9383e"></path><path d="M1570.6 386.4L1331.3 427.4L1341.3 588.7Z" fill="#781928" stroke="#781928"></path><path d="M951.9 0L645.7 190.2L944.9 302.2Z" fill="#882330" stroke="#882330"></path><path d="M944.9 302.2L645.7 190.2L895.9 430.4Z" fill="#ff6f61" stroke="#ff6f61"></path><path d="M645.7 190.2L392.4 251.2L465.4 408.4Z" fill="#a9383e" stroke="#a9383e"></path><path d="M149.2 1599.6L363.4 1840.8L491.4 1503.6Z" fill="#dc5853" stroke="#dc5853"></path><path d="M945.9 2000L1159.1 1825.8L932.9 1758.8Z" fill="#882330" stroke="#882330"></path><path d="M932.9 1758.8L1159.1 1825.8L1120.1 1529.6Z" fill="#680e21" stroke="#680e21"></path><path d="M1718.8 961.9L1625.6 874.9L1501.6 1030.1Z" fill="#59031a" stroke="#59031a"></path><path d="M1501.6 1030.1L1625.6 874.9L1359.3 852.9Z" fill="#680e21" stroke="#680e21"></path><path d="M149.2 1599.6L160.2 1792.8L363.4 1840.8Z" fill="#882330" stroke="#882330"></path><path d="M0 1336.3L0 1566.6L149.2 1599.6Z" fill="#cb4d4c" stroke="#cb4d4c"></path><path d="M1317.3 171.2L1040.1 167.2L1135.1 414.4Z" fill="#dc5853" stroke="#dc5853"></path><path d="M1159.1 1825.8L1340.3 1757.8L1120.1 1529.6Z" fill="#ff6f61" stroke="#ff6f61"></path><path d="M1361.3 1494.6L1626.6 1405.3L1258.3 1409.3Z" fill="#cb4d4c" stroke="#cb4d4c"></path><path d="M1625.6 874.9L1621.6 703.7L1359.3 852.9Z" fill="#dc5853" stroke="#dc5853"></path><path d="M0 1731.8L160.2 1792.8L149.2 1599.6Z" fill="#ba4345" stroke="#ba4345"></path><path d="M1612.6 1539.6L1626.6 1405.3L1361.3 1494.6Z" fill="#cb4d4c" stroke="#cb4d4c"></path><path d="M468.4 2000L696.7 1702.8L363.4 1840.8Z" fill="#982e37" stroke="#982e37"></path><path d="M468.4 2000L647.7 2000L696.7 1702.8Z" fill="#680e21" stroke="#680e21"></path><path d="M171.2 186.2L0 398.4L228.2 403.4Z" fill="#982e37" stroke="#982e37"></path><path d="M228.2 403.4L0 398.4L0 709.7Z" fill="#a9383e" stroke="#a9383e"></path><path d="M1813.8 1094.1L1718.8 961.9L1501.6 1030.1Z" fill="#dc5853" stroke="#dc5853"></path><path d="M1625.6 874.9L1799.8 670.7L1621.6 703.7Z" fill="#882330" stroke="#882330"></path><path d="M647.7 2000L945.9 2000L932.9 1758.8Z" fill="#cb4d4c" stroke="#cb4d4c"></path><path d="M1159.1 1825.8L1405.3 2000L1340.3 1757.8Z" fill="#ff6f61" stroke="#ff6f61"></path><path d="M276.2 2000L468.4 2000L363.4 1840.8Z" fill="#ff6f61" stroke="#ff6f61"></path><path d="M1586.6 1760.8L1612.6 1539.6L1361.3 1494.6Z" fill="#680e21" stroke="#680e21"></path><path d="M1626.6 1405.3L1813.8 1094.1L1501.6 1030.1Z" fill="#680e21" stroke="#680e21"></path><path d="M0 1566.6L0 1731.8L149.2 1599.6Z" fill="#781928" stroke="#781928"></path><path d="M160.2 1792.8L276.2 2000L363.4 1840.8Z" fill="#ff6f61" stroke="#ff6f61"></path><path d="M271.2 0L171.2 186.2L392.4 251.2Z" fill="#a9383e" stroke="#a9383e"></path><path d="M392.4 251.2L171.2 186.2L228.2 403.4Z" fill="#a9383e" stroke="#a9383e"></path><path d="M493.4 0L392.4 251.2L645.7 190.2Z" fill="#cb4d4c" stroke="#cb4d4c"></path><path d="M945.9 2000L1124.1 2000L1159.1 1825.8Z" fill="#dc5853" stroke="#dc5853"></path><path d="M1340.3 1757.8L1586.6 1760.8L1361.3 1494.6Z" fill="#ee645a" stroke="#ee645a"></path><path d="M951.9 0L665.7 0L645.7 190.2Z" fill="#ba4345" stroke="#ba4345"></path><path d="M1331.3 427.4L1317.3 171.2L1135.1 414.4Z" fill="#680e21" stroke="#680e21"></path><path d="M1040.1 167.2L951.9 0L944.9 302.2Z" fill="#ba4345" stroke="#ba4345"></path><path d="M1483.6 286.2L1317.3 171.2L1331.3 427.4Z" fill="#882330" stroke="#882330"></path><path d="M1621.6 703.7L1570.6 386.4L1341.3 588.7Z" fill="#ff6f61" stroke="#ff6f61"></path><path d="M1799.8 670.7L1570.6 386.4L1621.6 703.7Z" fill="#ff6f61" stroke="#ff6f61"></path><path d="M1570.6 386.4L1483.6 286.2L1331.3 427.4Z" fill="#cb4d4c" stroke="#cb4d4c"></path><path d="M1100.1 0L951.9 0L1040.1 167.2Z" fill="#a9383e" stroke="#a9383e"></path><path d="M665.7 0L493.4 0L645.7 190.2Z" fill="#882330" stroke="#882330"></path><path d="M0 2000L276.2 2000L160.2 1792.8Z" fill="#a9383e" stroke="#a9383e"></path><path d="M1845.8 1360.3L1813.8 1094.1L1626.6 1405.3Z" fill="#dc5853" stroke="#dc5853"></path><path d="M1718.8 961.9L1799.8 670.7L1625.6 874.9Z" fill="#dc5853" stroke="#dc5853"></path><path d="M1301.3 0L1100.1 0L1317.3 171.2Z" fill="#ba4345" stroke="#ba4345"></path><path d="M1317.3 171.2L1100.1 0L1040.1 167.2Z" fill="#59031a" stroke="#59031a"></path><path d="M1405.3 2000L1586.6 1760.8L1340.3 1757.8Z" fill="#781928" stroke="#781928"></path><path d="M1803.8 1591.6L1845.8 1360.3L1626.6 1405.3Z" fill="#59031a" stroke="#59031a"></path><path d="M2000 951.9L1799.8 670.7L1718.8 961.9Z" fill="#ee645a" stroke="#ee645a"></path><path d="M0 0L0 174.2L171.2 186.2Z" fill="#ff6f61" stroke="#ff6f61"></path><path d="M171.2 186.2L0 174.2L0 398.4Z" fill="#882330" stroke="#882330"></path><path d="M493.4 0L271.2 0L392.4 251.2Z" fill="#ba4345" stroke="#ba4345"></path><path d="M1803.8 1591.6L1626.6 1405.3L1612.6 1539.6Z" fill="#781928" stroke="#781928"></path><path d="M1813.8 1094.1L2000 951.9L1718.8 961.9Z" fill="#a9383e" stroke="#a9383e"></path><path d="M1124.1 2000L1405.3 2000L1159.1 1825.8Z" fill="#ba4345" stroke="#ba4345"></path><path d="M1517.6 0L1317.3 171.2L1483.6 286.2Z" fill="#781928" stroke="#781928"></path><path d="M1517.6 0L1301.3 0L1317.3 171.2Z" fill="#ee645a" stroke="#ee645a"></path><path d="M1782.8 276.2L1483.6 286.2L1570.6 386.4Z" fill="#dc5853" stroke="#dc5853"></path><path d="M1785.8 1718.8L1803.8 1591.6L1612.6 1539.6Z" fill="#882330" stroke="#882330"></path><path d="M1785.8 1718.8L1612.6 1539.6L1586.6 1760.8Z" fill="#ff6f61" stroke="#ff6f61"></path><path d="M0 1731.8L0 2000L160.2 1792.8Z" fill="#cb4d4c" stroke="#cb4d4c"></path><path d="M1759.8 2000L1785.8 1718.8L1586.6 1760.8Z" fill="#dc5853" stroke="#dc5853"></path><path d="M2000 1289.3L1813.8 1094.1L1845.8 1360.3Z" fill="#59031a" stroke="#59031a"></path><path d="M2000 374.4L1803.8 376.4L1799.8 670.7Z" fill="#ee645a" stroke="#ee645a"></path><path d="M1799.8 670.7L1803.8 376.4L1570.6 386.4Z" fill="#ba4345" stroke="#ba4345"></path><path d="M2000 1289.3L1845.8 1360.3L2000 1534.6Z" fill="#ff6f61" stroke="#ff6f61"></path><path d="M2000 1289.3L2000 1046.1L1813.8 1094.1Z" fill="#680e21" stroke="#680e21"></path><path d="M2000 1046.1L2000 951.9L1813.8 1094.1Z" fill="#dc5853" stroke="#dc5853"></path><path d="M271.2 0L0 0L171.2 186.2Z" fill="#ff6f61" stroke="#ff6f61"></path><path d="M2000 1534.6L1845.8 1360.3L1803.8 1591.6Z" fill="#cb4d4c" stroke="#cb4d4c"></path><path d="M1803.8 376.4L1782.8 276.2L1570.6 386.4Z" fill="#781928" stroke="#781928"></path><path d="M2000 374.4L1782.8 276.2L1803.8 376.4Z" fill="#882330" stroke="#882330"></path><path d="M1782.8 276.2L1517.6 0L1483.6 286.2Z" fill="#ff6f61" stroke="#ff6f61"></path><path d="M2000 951.9L2000 727.7L1799.8 670.7Z" fill="#882330" stroke="#882330"></path><path d="M1405.3 2000L1618.6 2000L1586.6 1760.8Z" fill="#a9383e" stroke="#a9383e"></path><path d="M2000 1794.8L1803.8 1591.6L1785.8 1718.8Z" fill="#cb4d4c" stroke="#cb4d4c"></path><path d="M2000 1794.8L2000 1534.6L1803.8 1591.6Z" fill="#ff6f61" stroke="#ff6f61"></path><path d="M1618.6 2000L1759.8 2000L1586.6 1760.8Z" fill="#cb4d4c" stroke="#cb4d4c"></path><path d="M2000 727.7L2000 374.4L1799.8 670.7Z" fill="#ba4345" stroke="#ba4345"></path><path d="M1782.8 276.2L1840.8 0L1517.6 0Z" fill="#ee645a" stroke="#ee645a"></path><path d="M1759.8 2000L2000 1794.8L1785.8 1718.8Z" fill="#882330" stroke="#882330"></path><path d="M2000 374.4L2000 225.2L1782.8 276.2Z" fill="#ee645a" stroke="#ee645a"></path><path d="M2000 225.2L1840.8 0L1782.8 276.2Z" fill="#882330" stroke="#882330"></path><path d="M1759.8 2000L2000 2000L2000 1794.8Z" fill="#ba4345" stroke="#ba4345"></path><path d="M2000 225.2L2000 0L1840.8 0Z" fill="#59031a" stroke="#59031a"></path></g></svg>